# File created by Blade
# Date/Time:  Thu Jan 22 16:21:39 2015
# Frame Rate: 120.000 fps
#------------------------------------------------------
:FULLY-SPECIFIED
:DEGREES
866
root 16.626814 36.658105 -0.732604 -4.181674 -16.974243 3.980999
RightUpLeg 16.586723 -6.402851 8.179220
RightLeg 24.743932 -0.000000 -0.000000
RightFoot 4.524907 8.945725 36.381909
RightToeBase 15.519668 -0.000000 -0.000000
LeftUpLeg -9.226594 -8.488484 -10.924377
LeftLeg 17.173867 -0.000000 -0.000000
LeftFoot -12.522027 18.220756 -13.485643
LeftToeBase 10.743674 -0.000000 -0.000000
Spine 10.899506 0.479340 -19.644000
RightShoulder -3.748086 -14.082328 -29.436547
RightArm 21.866568 29.948920 39.069410
RightForeArm 1.676353 0.000000 25.376639
RightHand 11.424633 -0.000000 -22.881473
RightHandThumb1 -24.326973 -0.000000 -32.862282
LeftShoulder -27.699279 36.034994 -3.946229
LeftArm 40.232432 -17.258852 -68.933766
LeftForeArm 29.871692 -0.000000 19.619855
LeftHand -19.261646 0.000000 -8.010261
LeftHandThumb1 -26.253704 0.000000 33.147579
Head 22.586078 28.413710 -6.802815
867
root 16.541845 36.691582 -0.629643 -4.410226 -16.940114 3.876369
RightUpLeg 16.047957 -7.581225 7.528941
RightLeg 26.630120 -0.000000 -0.000000
RightFoot 3.220283 9.065930 36.572851
RightToeBase 14.761915 -0.000000 -0.000000
LeftUpLeg -8.666883 -8.595171 -10.821816
LeftLeg 16.990107 -0.000000 -0.000000
LeftFoot -12.572438 18.320797 -13.429245
LeftToeBase 10.523983 -0.000000 -0.000000
Spine 11.157581 0.168138 -19.421125
RightShoulder -3.690031 -14.178913 -29.070801
RightArm 22.052247 29.416847 39.416747
RightForeArm 1.680050 0.000000 25.424085
RightHand 11.231737 -0.000000 -22.685262
RightHandThumb1 -24.326973 -0.000000 -32.862282
LeftShoulder -27.712020 36.192659 -3.675298
LeftArm 40.080789 -17.532961 -68.900495
LeftForeArm 30.083639 -0.000000 19.524519
LeftHand -19.171531 -0.000000 -8.027950
LeftHandThumb1 -26.253704 0.000000 33.147579
Head 22.479068 28.189557 -6.258431
868
root 16.461508 36.723959 -0.525690 -4.657851 -16.931099 3.776397
RightUpLeg 15.522333 -8.607461 6.882199
RightLeg 28.501683 -0.000000 -0.000000
RightFoot 1.970583 9.389311 36.718967
RightToeBase 14.900950 -0.000000 -0.000000
LeftUpLeg -8.079404 -8.638060 -10.724707
LeftLeg 16.771979 -0.000000 -0.000000
LeftFoot -12.590377 18.380709 -13.336848
LeftToeBase 10.334723 -0.000000 -0.000000
Spine 11.426311 -0.123480 -19.177404
RightShoulder -3.665828 -14.368156 -28.737847
RightArm 22.379176 29.043708 39.884053
RightForeArm 1.501972 -0.000000 25.453583
RightHand 11.086176 -0.000000 -22.437214
RightHandThumb1 -24.326973 -0.000000 -32.862282
LeftShoulder -27.735292 36.335145 -3.427475
LeftArm 39.925808 -17.723066 -68.774591
LeftForeArm 30.290632 -0.000000 19.379703
LeftHand -19.230845 -0.000000 -7.940372
LeftHandThumb1 -26.253704 0.000000 33.147579
Head 22.384488 27.958437 -5.728247
869
root 16.379564 36.757202 -0.427216 -4.890969 -16.954216 3.616666
RightUpLeg 14.918433 -9.723321 6.205960
RightLeg 30.504167 -0.000000 -0.000000
RightFoot 1.026172 9.969059 36.650086
RightToeBase 14.751829 -0.000000 -0.000000
LeftUpLeg -7.517822 -8.625633 -10.566055
LeftLeg 16.595102 -0.000000 -0.000000
LeftFoot -12.606467 18.403240 -13.243853
LeftToeBase 10.106163 -0.000000 -0.000000
Spine 11.700264 -0.362922 -18.852790
RightShoulder -3.628515 -14.441566 -28.430419
RightArm 22.511265 28.592904 40.265762
RightForeArm 1.458566 -0.000000 25.580232
RightHand 10.840106 -0.000000 -22.106189
RightHandThumb1 -24.326973 -0.000000 -32.862282
LeftShoulder -27.713307 36.500156 -3.163095
LeftArm 39.788464 -17.889241 -68.629174
LeftForeArm 30.354752 -0.000000 19.221886
LeftHand -19.200609 -0.000000 -7.799926
LeftHandThumb1 -26.253704 0.000000 33.147579
Head 22.297367 27.689026 -5.192278
870
root 16.298709 36.790292 -0.330347 -5.103409 -17.004142 3.455285
RightUpLeg 14.285834 -10.682023 5.542292
RightLeg 32.467829 -0.000000 -0.000000
RightFoot 0.344995 10.665575 36.676296
RightToeBase 15.223043 -0.000000 -0.000000
LeftUpLeg -6.968237 -8.592024 -10.403776
LeftLeg 16.383379 -0.000000 -0.000000
LeftFoot -12.566201 18.463034 -13.088234
LeftToeBase 9.754419 -0.000000 -0.000000
Spine 11.935633 -0.600108 -18.531257
RightShoulder -3.584450 -14.564827 -28.078855
RightArm 22.691825 28.198410 40.600770
RightForeArm 1.348436 -0.000000 25.651606
RightHand 10.712077 -0.000000 -21.785604
RightHandThumb1 -24.326973 -0.000000 -32.862282
LeftShoulder -27.688309 36.647761 -2.858406
LeftArm 39.613882 -18.073869 -68.527529
LeftForeArm 30.527753 0.000000 19.085712
LeftHand -19.138930 -0.000000 -7.711310
LeftHandThumb1 -26.253704 0.000000 33.147579
Head 22.210034 27.386065 -4.683412
871
root 16.217699 36.822739 -0.239929 -5.308207 -17.077674 3.251666
RightUpLeg 13.620895 -11.557459 4.940809
RightLeg 34.424640 -0.000000 -0.000000
RightFoot -0.243925 11.249170 36.449971
RightToeBase 15.181715 -0.000000 -0.000000
LeftUpLeg -6.444855 -8.544192 -10.194907
LeftLeg 16.218145 -0.000000 -0.000000
LeftFoot -12.505232 18.515009 -12.870662
LeftToeBase 9.289879 -0.000000 -0.000000
Spine 12.193212 -0.832352 -18.156539
RightShoulder -3.564311 -14.367393 -27.790854
RightArm 22.699908 27.555913 40.860239
RightForeArm 1.222804 -0.000000 25.684762
RightHand 10.614413 -0.000000 -21.406632
RightHandThumb1 -24.326973 -0.000000 -32.862282
LeftShoulder -27.737506 36.804382 -2.603559
LeftArm 39.542600 -18.227355 -68.405836
LeftForeArm 30.673566 0.000000 18.909159
LeftHand -19.237163 -0.000000 -7.792311
LeftHandThumb1 -26.253704 0.000000 33.147579
Head 22.091925 27.122806 -4.179320
872
root 16.134782 36.854452 -0.152382 -5.490448 -17.190659 3.038008
RightUpLeg 12.915493 -12.333468 4.385474
RightLeg 36.352950 -0.000000 -0.000000
RightFoot -0.964836 11.678357 36.121627
RightToeBase 14.944859 -0.000000 -0.000000
LeftUpLeg -5.950857 -8.441626 -9.968058
LeftLeg 16.062096 -0.000000 -0.000000
LeftFoot -12.449403 18.572068 -12.609595
LeftToeBase 8.859907 -0.000000 -0.000000
Spine 12.417940 -1.048411 -17.776156
RightShoulder -3.527682 -14.730149 -27.442438
RightArm 23.063811 27.382045 41.253482
RightForeArm 1.096347 -0.000000 25.775396
RightHand 10.243134 -0.000000 -20.861835
RightHandThumb1 -24.326973 -0.000000 -32.862282
LeftShoulder -27.823861 36.943203 -2.361790
LeftArm 39.422216 -18.272498 -68.158024
LeftForeArm 30.610600 -0.000000 18.752930
LeftHand -19.354874 -0.000000 -7.631534
LeftHandThumb1 -26.253704 0.000000 33.147579
Head 21.980821 26.884977 -3.633884
873
root 16.050662 36.883588 -0.073849 -5.632982 -17.311890 2.779885
RightUpLeg 12.168105 -12.962098 3.927545
RightLeg 38.227161 -0.000000 -0.000000
RightFoot -1.858457 11.776575 35.775106
RightToeBase 14.082138 -0.000000 -0.000000
LeftUpLeg -5.547810 -8.320550 -9.695059
LeftLeg 16.020060 -0.000000 -0.000000
LeftFoot -12.471840 18.603046 -12.371490
LeftToeBase 8.449449 -0.000000 -0.000000
Spine 12.640944 -1.231032 -17.323507
RightShoulder -3.495228 -14.814617 -27.162347
RightArm 23.191355 27.023085 41.576233
RightForeArm 1.048462 0.000000 25.827455
RightHand 10.323496 -0.000000 -20.593774
RightHandThumb1 -24.326973 -0.000000 -32.862282
LeftShoulder -27.790388 37.014628 -2.030301
LeftArm 39.236716 -18.441914 -68.043042
LeftForeArm 30.721776 0.000000 18.637711
LeftHand -19.337748 -0.000000 -7.589983
LeftHandThumb1 -26.253704 0.000000 33.147579
Head 21.813674 26.633566 -3.134560
874
root 15.977764 36.914488 0.010367 -5.822135 -17.481046 2.606811
RightUpLeg 11.420579 -13.491804 3.385244
RightLeg 40.094308 -0.000000 -0.000000
RightFoot -3.227786 11.374083 35.012386
RightToeBase 13.460758 -0.000000 -0.000000
LeftUpLeg -4.979352 -8.287862 -9.502607
LeftLeg 15.679942 -0.000000 -0.000000
LeftFoot -12.422198 18.691117 -12.209370
LeftToeBase 8.102611 -0.000000 -0.000000
Spine 12.859010 -1.352799 -16.956592
RightShoulder -3.481056 -14.984650 -26.831613
RightArm 23.391980 26.619156 41.809884
RightForeArm 1.052289 -0.000000 25.801543
RightHand 10.268327 -0.000000 -20.471039
RightHandThumb1 -24.326973 -0.000000 -32.862282
LeftShoulder -27.786330 37.134361 -1.727642
LeftArm 39.076089 -18.573147 -67.876325
LeftForeArm 30.775123 0.000000 18.559468
LeftHand -19.371526 0.000000 -7.358076
LeftHandThumb1 -26.253704 0.000000 33.147579
Head 21.655123 26.288433 -2.662559
875
root 15.902004 36.944208 0.089875 -5.992240 -17.682164 2.401057
RightUpLeg 10.653151 -13.899690 2.930841
RightLeg 41.857551 -0.000000 -0.000000
RightFoot -4.820312 10.518253 34.097329
RightToeBase 12.891523 -0.000000 -0.000000
LeftUpLeg -4.469762 -8.219466 -9.279530
LeftLeg 15.437426 -0.000000 -0.000000
LeftFoot -12.375940 18.789501 -11.965724
LeftToeBase 7.704176 -0.000000 -0.000000
Spine 13.063265 -1.477333 -16.560050
RightShoulder -3.380842 -15.128140 -26.506744
RightArm 23.509648 26.357922 42.048659
RightForeArm 0.829703 -0.000000 25.822720
RightHand 10.155374 -0.000000 -20.208408
RightHandThumb1 -24.326973 -0.000000 -32.862282
LeftShoulder -27.835557 37.259170 -1.455229
LeftArm 38.961084 -18.734263 -67.754003
LeftForeArm 30.811483 -0.000000 18.457994
LeftHand -19.379168 -0.000000 -7.162965
LeftHandThumb1 -26.253704 0.000000 33.147579
Head 21.476096 25.998172 -2.190659
876
root 15.826522 36.972570 0.166643 -6.138027 -17.897314 2.210437
RightUpLeg 9.850847 -14.264732 2.491343
RightLeg 43.515254 -0.000000 -0.000000
RightFoot -6.505630 9.311682 33.015648
RightToeBase 12.141120 -0.000000 -0.000000
LeftUpLeg -4.008836 -8.141855 -9.065730
LeftLeg 15.229073 -0.000000 -0.000000
LeftFoot -12.452597 18.906828 -11.909035
LeftToeBase 7.585708 -0.000000 -0.000000
Spine 13.233826 -1.539474 -16.174971
RightShoulder -3.395482 -15.315402 -26.154989
RightArm 23.721628 26.127588 42.317965
RightForeArm 0.718092 -0.000000 25.838164
RightHand 9.929197 0.000000 -19.924224
RightHandThumb1 -24.326973 -0.000000 -32.862282
LeftShoulder -27.850744 37.409345 -1.163941
LeftArm 38.890347 -18.938177 -67.631767
LeftForeArm 30.654224 -0.000000 18.370259
LeftHand -19.333898 0.000000 -7.070725
LeftHandThumb1 -26.253704 0.000000 33.147579
Head 21.291416 25.624947 -1.741309
877
root 15.755405 36.999034 0.243814 -6.318059 -18.112088 2.058701
RightUpLeg 9.069124 -14.613126 1.968198
RightLeg 45.109023 -0.000000 -0.000000
RightFoot -8.226572 8.004479 31.861576
RightToeBase 11.599915 -0.000000 -0.000000
LeftUpLeg -3.517707 -8.118856 -8.903634
LeftLeg 15.006224 -0.000000 -0.000000
LeftFoot -12.481949 19.069726 -11.789862
LeftToeBase 7.383569 -0.000000 -0.000000
Spine 13.447841 -1.624449 -15.842635
RightShoulder -3.350834 -15.522989 -25.809347
RightArm 23.901259 25.916694 42.533280
RightForeArm 0.563920 -0.000000 25.835047
RightHand 9.881934 -0.000000 -19.638747
RightHandThumb1 -24.326973 -0.000000 -32.862282
LeftShoulder -27.929613 37.534943 -0.886539
LeftArm 38.810131 -19.135902 -67.511435
LeftForeArm 30.585658 -0.000000 18.323305
LeftHand -19.285697 -0.000000 -7.298776
LeftHandThumb1 -26.253704 0.000000 33.147579
Head 21.069807 25.272089 -1.310433
